<svg width="118" height="40" viewBox="0 0 118 40" fill="none" xmlns="http://www.w3.org/2000/svg">
<path d="M27.7764 8.69683L21.0068 2.88281V11.6255L27.7764 8.69683Z" fill="#0B74B9"/>
<path d="M21.0075 14.3125V25.6151L6.76957 31.7545V29.0862L18.5399 24.0098V15.3755L8.49472 19.7143L6.76957 20.4519V17.8052L18.5399 12.7071V4.00781L0 12.0346V34.7483L7.99246 39.8898L27.7771 31.3424V11.3838L21.0075 14.3125Z" fill="#2EBCED"/>
<path d="M7.99246 39.8763L0 34.7348L21.0075 25.6016L27.7771 31.3288L7.99246 39.8763Z" fill="#0B74B9"/>
<path d="M18.5399 23.9858L6.76957 29.0622L0 23.3567L18.5399 15.3516V23.9858Z" fill="#0B74B9"/>
<path d="M0 12.0346L6.76957 17.8052L18.5399 12.7071V4.00781L0 12.0346Z" fill="#0B74B9"/>
<path d="M27.7764 0V8.69933L21.0068 2.9287L27.7764 0Z" fill="#2EBCED"/>
<path d="M34.0938 12.8828H44.9862V15.9832H37.6486V18.8251H44.6216V21.9255H37.6486V24.9827H45.4419V28.0831H34.0938V12.8828Z" fill="#0B74B9"/>
<path d="M47.8164 17.6684H51.0978V19.0894H51.1434C51.2345 18.8741 51.4168 18.7019 51.5991 18.4866C51.7814 18.2713 52.0093 18.099 52.2828 17.9698C52.5562 17.7976 52.8752 17.6684 53.1943 17.5823C53.5589 17.4962 53.9235 17.4531 54.3336 17.4531C55.1084 17.4531 55.792 17.5823 56.3845 17.8837C56.977 18.1851 57.4327 18.6588 57.7518 19.3047C58.1619 18.6158 58.6177 18.1421 59.1646 17.8837C59.7115 17.5823 60.3951 17.4531 61.2155 17.4531C61.9447 17.4531 62.5827 17.5823 63.0841 17.7976C63.5854 18.0129 63.9956 18.3574 64.269 18.7449C64.5425 19.1325 64.7703 19.6492 64.9071 20.1659C65.0438 20.7257 65.0894 21.2855 65.0894 21.9314V28.089H61.6712V22.0175C61.6712 21.5438 61.5801 21.1132 61.3522 20.7688C61.1243 20.4243 60.7597 20.252 60.1672 20.252C59.7571 20.252 59.438 20.2951 59.1646 20.4243C58.8911 20.5535 58.7088 20.7257 58.5265 20.941C58.3898 21.1563 58.2531 21.4147 58.2075 21.673C58.1619 21.9745 58.1164 22.2759 58.1164 22.5773V28.089H54.6982V22.5342C54.6982 22.362 54.6982 22.1036 54.6982 21.8453C54.6982 21.5869 54.6527 21.3285 54.5615 21.0702C54.4704 20.8118 54.3336 20.6396 54.1058 20.4673C53.9235 20.2951 53.6044 20.209 53.1943 20.209C52.7385 20.209 52.4195 20.2951 52.146 20.4243C51.8726 20.5535 51.6447 20.7688 51.508 21.0271C51.3713 21.2855 51.2801 21.5438 51.2345 21.8883C51.189 22.1898 51.189 22.5342 51.189 22.8787V28.0459H47.8164V17.6684Z" fill="#0B74B9"/>
<path d="M67.8604 17.6684H71.005V19.0464H71.0506C71.1873 18.8741 71.3696 18.6588 71.5975 18.4866C71.8254 18.3143 72.0533 18.099 72.3723 17.9698C72.6457 17.7976 73.0103 17.6684 73.3294 17.5823C73.694 17.4962 74.0586 17.4531 74.4232 17.4531C75.2435 17.4531 75.9727 17.5823 76.6563 17.8407C77.34 18.099 77.8869 18.4866 78.3882 18.9602C78.8439 19.4339 79.2085 19.9937 79.482 20.6826C79.7554 21.3285 79.8466 22.0606 79.8466 22.8357C79.8466 23.5677 79.7099 24.2566 79.482 24.9456C79.2541 25.5915 78.9351 26.1944 78.4793 26.7111C78.0692 27.2278 77.5223 27.6153 76.8842 27.9598C76.2462 28.2613 75.5625 28.4335 74.7878 28.4335C74.0586 28.4335 73.4205 28.3474 72.7825 28.1321C72.19 27.9168 71.6887 27.5723 71.2785 27.0556H71.2329V33.0409H67.8604V17.6684ZM70.9595 22.8357C70.9595 23.6107 71.1873 24.2566 71.6887 24.7303C72.1444 25.204 72.828 25.4623 73.694 25.4623C74.5599 25.4623 75.2435 25.204 75.6993 24.7303C76.155 24.2566 76.4285 23.6107 76.4285 22.8357C76.4285 22.0606 76.2006 21.4147 75.6993 20.941C75.2435 20.4673 74.5599 20.209 73.694 20.209C72.828 20.209 72.1444 20.4673 71.6887 20.941C71.2329 21.4147 70.9595 22.0606 70.9595 22.8357Z" fill="#0B74B9"/>
<path d="M81.8379 11.8672H85.256V28.0578H81.8379V11.8672Z" fill="#0B74B9"/>
<path d="M87.3232 22.8437C87.3232 22.0255 87.46 21.2504 87.779 20.6045C88.098 19.9156 88.5082 19.3558 89.1007 18.8821C89.6476 18.4084 90.2856 18.0209 91.0604 17.7625C91.7896 17.5042 92.61 17.375 93.4303 17.375C94.2962 17.375 95.071 17.5042 95.8002 17.7625C96.5294 18.0209 97.213 18.4084 97.7599 18.8821C98.3068 19.3558 98.7626 19.9156 99.0816 20.6045C99.4006 21.2935 99.5374 22.0255 99.5374 22.8437C99.5374 23.6618 99.4006 24.4369 99.0816 25.0828C98.7626 25.7718 98.3524 26.3315 97.7599 26.8052C97.213 27.2789 96.575 27.6664 95.8002 27.9248C95.071 28.1831 94.2507 28.3123 93.4303 28.3123C92.5644 28.3123 91.7896 28.1831 91.0604 27.9248C90.3312 27.6664 89.6476 27.2789 89.1007 26.8052C88.5538 26.3315 88.098 25.7718 87.779 25.0828C87.46 24.4369 87.3232 23.7049 87.3232 22.8437ZM90.6958 22.8437C90.6958 23.6187 90.9237 24.2646 91.425 24.7383C91.8807 25.212 92.5644 25.4703 93.4303 25.4703C94.2962 25.4703 94.9799 25.212 95.4356 24.7383C95.8914 24.2646 96.1648 23.6187 96.1648 22.8437C96.1648 22.0686 95.9369 21.4227 95.4356 20.949C94.9799 20.4753 94.2962 20.217 93.4303 20.217C92.5644 20.217 91.8807 20.4753 91.425 20.949C90.9237 21.4227 90.6958 22.0686 90.6958 22.8437Z" fill="#0B74B9"/>
<path d="M101.326 14.3556C101.326 13.8389 101.508 13.4083 101.919 13.0207C102.283 12.6762 102.785 12.4609 103.331 12.4609C103.878 12.4609 104.334 12.6332 104.744 13.0207C105.109 13.3652 105.337 13.8389 105.337 14.3556C105.337 14.8723 105.154 15.3029 104.744 15.6905C104.38 16.0349 103.878 16.2502 103.331 16.2502C102.785 16.2502 102.329 16.078 101.919 15.6905C101.508 15.346 101.326 14.8723 101.326 14.3556ZM101.6 17.6712H105.018V28.0918H101.6V17.6712Z" fill="#0B74B9"/>
<path d="M107.427 17.6684H110.708V19.0894H110.754C110.845 18.8741 111.027 18.7019 111.209 18.4866C111.392 18.2713 111.62 18.099 111.893 17.9698C112.167 17.7976 112.486 17.6684 112.805 17.5823C113.169 17.4962 113.534 17.4531 113.944 17.4531C114.81 17.4531 115.494 17.5823 116.04 17.8407C116.587 18.099 116.998 18.4435 117.271 18.8741C117.544 19.3047 117.772 19.8214 117.863 20.4243C117.955 21.0271 118 21.673 118 22.362V28.089H114.582V22.9648C114.582 22.6634 114.582 22.362 114.536 22.0175C114.491 21.7161 114.445 21.4147 114.354 21.1132C114.263 20.8549 114.081 20.6396 113.853 20.4673C113.625 20.2951 113.26 20.209 112.85 20.209C112.394 20.209 112.075 20.2951 111.802 20.4243C111.529 20.5535 111.301 20.7688 111.164 21.0271C111.027 21.2855 110.936 21.5438 110.89 21.8883C110.845 22.1898 110.845 22.5342 110.845 22.8787V28.0459H107.427V17.6684Z" fill="#0B74B9"/>
</svg>
