<svg width="14" height="14" viewBox="0 0 14 14" fill="none" xmlns="http://www.w3.org/2000/svg">
<path fill-rule="evenodd" clip-rule="evenodd" d="M1.93851 6.55993e-05L1.88431 3.33122e-05C1.63829 -0.000201455 1.42621 -0.000403911 1.23833 0.0447037C0.647679 0.186501 0.186501 0.647679 0.0447037 1.23833C-0.000403911 1.42621 -0.000201455 1.63829 3.33122e-05 1.88431L6.55993e-05 1.93851V4.5231L3.33122e-05 4.57731C-0.000201455 4.82333 -0.000403911 5.03541 0.0447037 5.22328C0.186501 5.81394 0.647679 6.27512 1.23833 6.41692C1.42621 6.46202 1.63829 6.46182 1.88431 6.46158L1.93851 6.46155H4.5231L4.57731 6.46158C4.82333 6.46182 5.03541 6.46202 5.22328 6.41692C5.81394 6.27512 6.27512 5.81394 6.41692 5.22328C6.46202 5.03541 6.46182 4.82333 6.46158 4.57731L6.46155 4.5231V1.93851L6.46158 1.88431C6.46182 1.63829 6.46202 1.42621 6.41692 1.23833C6.27512 0.647679 5.81394 0.186501 5.22328 0.0447037C5.03541 -0.000403911 4.82333 -0.000201455 4.57731 3.33122e-05L4.5231 6.55993e-05H1.93851ZM1.48974 1.09186C1.53609 1.08073 1.60706 1.07698 1.93851 1.07698H4.5231C4.85457 1.07698 4.92554 1.08073 4.97188 1.09186C5.16877 1.13913 5.32249 1.29285 5.36976 1.48974C5.38089 1.53609 5.38464 1.60706 5.38464 1.93851V4.5231C5.38464 4.85457 5.38089 4.92554 5.36976 4.97188C5.32249 5.16877 5.16877 5.32249 4.97188 5.36976C4.92554 5.38089 4.85457 5.38464 4.5231 5.38464H1.93851C1.60706 5.38464 1.53609 5.38089 1.48974 5.36976C1.29285 5.32249 1.13913 5.16877 1.09186 4.97188C1.08073 4.92554 1.07698 4.85457 1.07698 4.5231V1.93851C1.07698 1.60706 1.08073 1.53609 1.09186 1.48974C1.13913 1.29285 1.29285 1.13913 1.48974 1.09186ZM9.47691 6.55993e-05L9.42271 3.33122e-05C9.17669 -0.000201455 8.96461 -0.000403911 8.77673 0.0447037C8.18608 0.186501 7.7249 0.647679 7.5831 1.23833C7.53799 1.42621 7.5382 1.63829 7.53843 1.88431L7.53846 1.93851V4.5231L7.53843 4.57731C7.5382 4.82333 7.53799 5.03541 7.5831 5.22328C7.7249 5.81394 8.18608 6.27512 8.77673 6.41692C8.96461 6.46202 9.17669 6.46182 9.42271 6.46158L9.47691 6.46155H12.0615L12.1157 6.46158C12.3617 6.46182 12.5738 6.46202 12.7617 6.41692C13.3523 6.27512 13.8135 5.81394 13.9554 5.22328C14.0004 5.03541 14.0003 4.82333 13.9999 4.57731V4.5231V1.93851V1.88431C14.0003 1.63829 14.0004 1.42621 13.9554 1.23833C13.8135 0.647679 13.3523 0.186501 12.7617 0.0447037C12.5738 -0.000403911 12.3617 -0.000201455 12.1157 3.33122e-05L12.0615 6.55993e-05H9.47691ZM9.02814 1.09186C9.07449 1.08073 9.14546 1.07698 9.47691 1.07698H12.0615C12.393 1.07698 12.4639 1.08073 12.5103 1.09186C12.7071 1.13913 12.8609 1.29285 12.9082 1.48974C12.9193 1.53609 12.923 1.60706 12.923 1.93851V4.5231C12.923 4.85457 12.9193 4.92554 12.9082 4.97188C12.8609 5.16877 12.7071 5.32249 12.5103 5.36976C12.4639 5.38089 12.393 5.38464 12.0615 5.38464H9.47691C9.14546 5.38464 9.07449 5.38089 9.02814 5.36976C8.83125 5.32249 8.67753 5.16877 8.63026 4.97188C8.61913 4.92554 8.61538 4.85457 8.61538 4.5231V1.93851C8.61538 1.60706 8.61913 1.53609 8.63026 1.48974C8.67753 1.29285 8.83125 1.13913 9.02814 1.09186ZM1.88431 7.53843L1.93851 7.53846H4.5231L4.57731 7.53843C4.82333 7.5382 5.03541 7.53799 5.22328 7.5831C5.81394 7.7249 6.27512 8.18608 6.41692 8.77673C6.46202 8.96461 6.46182 9.17669 6.46158 9.42271L6.46155 9.47691V12.0615L6.46158 12.1157C6.46182 12.3617 6.46202 12.5738 6.41692 12.7617C6.27512 13.3523 5.81394 13.8135 5.22328 13.9554C5.03541 14.0004 4.82333 14.0003 4.57731 13.9999H4.5231H1.93851H1.88431C1.63829 14.0003 1.42621 14.0004 1.23833 13.9554C0.647679 13.8135 0.186501 13.3523 0.0447037 12.7617C-0.000403911 12.5738 -0.000201455 12.3617 3.33122e-05 12.1157L6.55993e-05 12.0615V9.47691L3.33122e-05 9.42271C-0.000201455 9.17669 -0.000403911 8.96461 0.0447037 8.77673C0.186501 8.18608 0.647679 7.7249 1.23833 7.5831C1.42621 7.53799 1.63829 7.5382 1.88431 7.53843ZM1.93851 8.61538C1.60706 8.61538 1.53609 8.61913 1.48974 8.63026C1.29285 8.67753 1.13913 8.83125 1.09186 9.02814C1.08073 9.07449 1.07698 9.14546 1.07698 9.47691V12.0615C1.07698 12.393 1.08073 12.4639 1.09186 12.5103C1.13913 12.7071 1.29285 12.8609 1.48974 12.9082C1.53609 12.9193 1.60706 12.923 1.93851 12.923H4.5231C4.85457 12.923 4.92554 12.9193 4.97188 12.9082C5.16877 12.8609 5.32249 12.7071 5.36976 12.5103C5.38089 12.4639 5.38464 12.393 5.38464 12.0615V9.47691C5.38464 9.14546 5.38089 9.07449 5.36976 9.02814C5.32249 8.83125 5.16877 8.67753 4.97188 8.63026C4.92554 8.61913 4.85457 8.61538 4.5231 8.61538H1.93851ZM9.47691 7.53846L9.42271 7.53843C9.17669 7.5382 8.96461 7.53799 8.77673 7.5831C8.18608 7.7249 7.7249 8.18608 7.5831 8.77673C7.53799 8.96461 7.5382 9.17669 7.53843 9.42271L7.53846 9.47691V12.0615L7.53843 12.1157C7.5382 12.3617 7.53799 12.5738 7.5831 12.7617C7.7249 13.3523 8.18608 13.8135 8.77673 13.9554C8.96461 14.0004 9.17669 14.0003 9.42271 13.9999H9.47691H12.0615H12.1157C12.3617 14.0003 12.5738 14.0004 12.7617 13.9554C13.3523 13.8135 13.8135 13.3523 13.9554 12.7617C14.0004 12.5738 14.0003 12.3617 13.9999 12.1157V12.0615V9.47691V9.42271C14.0003 9.17669 14.0004 8.96461 13.9554 8.77673C13.8135 8.18608 13.3523 7.7249 12.7617 7.5831C12.5738 7.53799 12.3617 7.5382 12.1157 7.53843L12.0615 7.53846H9.47691ZM9.02814 8.63026C9.07449 8.61913 9.14546 8.61538 9.47691 8.61538H12.0615C12.393 8.61538 12.4639 8.61913 12.5103 8.63026C12.7071 8.67753 12.8609 8.83125 12.9082 9.02814C12.9193 9.07449 12.923 9.14546 12.923 9.47691V12.0615C12.923 12.393 12.9193 12.4639 12.9082 12.5103C12.8609 12.7071 12.7071 12.8609 12.5103 12.9082C12.4639 12.9193 12.393 12.923 12.0615 12.923H9.47691C9.14546 12.923 9.07449 12.9193 9.02814 12.9082C8.83125 12.8609 8.67753 12.7071 8.63026 12.5103C8.61913 12.4639 8.61538 12.393 8.61538 12.0615V9.47691C8.61538 9.14546 8.61913 9.07449 8.63026 9.02814C8.67753 8.83125 8.83125 8.67753 9.02814 8.63026Z" fill="#6B6B6B" style="fill:#6B6B6B;fill:color(display-p3 0.4196 0.4196 0.4196);fill-opacity:1;"/>
</svg>
