<svg width="16" height="14" viewBox="0 0 16 14" fill="none" xmlns="http://www.w3.org/2000/svg">
<path fill-rule="evenodd" clip-rule="evenodd" d="M0 5C0 4.86739 0.0526785 4.74021 0.146447 4.64645C0.240215 4.55268 0.367392 4.5 0.5 4.5H11.808C11.9406 4.5 12.0678 4.55268 12.1616 4.64645C12.2553 4.74021 12.308 4.86739 12.308 5C12.308 5.13261 12.2553 5.25979 12.1616 5.35355C12.0678 5.44732 11.9406 5.5 11.808 5.5H0.5C0.367392 5.5 0.240215 5.44732 0.146447 5.35355C0.0526785 5.25979 0 5.13261 0 5ZM0 1C0 0.867392 0.0526785 0.740215 0.146447 0.646447C0.240215 0.552679 0.367392 0.5 0.5 0.5H15.5C15.6326 0.5 15.7598 0.552679 15.8536 0.646447C15.9473 0.740215 16 0.867392 16 1C16 1.13261 15.9473 1.25979 15.8536 1.35355C15.7598 1.44732 15.6326 1.5 15.5 1.5H0.5C0.367392 1.5 0.240215 1.44732 0.146447 1.35355C0.0526785 1.25979 0 1.13261 0 1ZM0 9C0 8.86739 0.0526785 8.74021 0.146447 8.64645C0.240215 8.55268 0.367392 8.5 0.5 8.5H15.5C15.6326 8.5 15.7598 8.55268 15.8536 8.64645C15.9473 8.74021 16 8.86739 16 9C16 9.13261 15.9473 9.25979 15.8536 9.35355C15.7598 9.44732 15.6326 9.5 15.5 9.5H0.5C0.367392 9.5 0.240215 9.44732 0.146447 9.35355C0.0526785 9.25979 0 9.13261 0 9ZM0 13C0 12.8674 0.0526785 12.7402 0.146447 12.6464C0.240215 12.5527 0.367392 12.5 0.5 12.5H11.808C11.9406 12.5 12.0678 12.5527 12.1616 12.6464C12.2553 12.7402 12.308 12.8674 12.308 13C12.308 13.1326 12.2553 13.2598 12.1616 13.3536C12.0678 13.4473 11.9406 13.5 11.808 13.5H0.5C0.367392 13.5 0.240215 13.4473 0.146447 13.3536C0.0526785 13.2598 0 13.1326 0 13Z" fill="#183C54" style="fill:#183C54;fill:color(display-p3 0.0941 0.2353 0.3294);fill-opacity:1;"/>
</svg>
