<svg width="18" height="18" viewBox="0 0 18 18" fill="none" xmlns="http://www.w3.org/2000/svg">
<path fill-rule="evenodd" clip-rule="evenodd" d="M9 5.46875C9 5.46875 10.398 5.46875 11.3865 6.45726C11.3865 6.45726 12.375 7.44578 12.375 8.84375C12.375 8.84375 12.375 10.2417 11.3865 11.2302C11.3865 11.2302 10.398 12.2188 9 12.2188C9 12.2188 7.60203 12.2188 6.61351 11.2302C6.61351 11.2302 5.625 10.2417 5.625 8.84375C5.625 8.84375 5.625 7.44578 6.61351 6.45726C6.61351 6.45726 7.60203 5.46875 9 5.46875ZM9 6.59375C9 6.59375 8.06802 6.59375 7.40901 7.25276C7.40901 7.25276 6.75 7.91177 6.75 8.84375C6.75 8.84375 6.75 9.77573 7.40901 10.4347C7.40901 10.4347 8.06802 11.0938 9 11.0938C9 11.0938 9.93198 11.0938 10.591 10.4347C10.591 10.4347 11.25 9.77573 11.25 8.84375C11.25 8.84375 11.25 7.91177 10.591 7.25276C10.591 7.25276 9.93198 6.59375 9 6.59375Z" fill="#1C1C1C" fill-opacity="0.65" style="fill:#1C1C1C;fill:color(display-p3 0.1098 0.1098 0.1098);fill-opacity:0.65;"/>
<path d="M16.7055 10.1803L16.7057 10.1805C16.795 10.3 16.9281 10.3791 17.0757 10.4005C17.1024 10.4043 17.1293 10.4063 17.1562 10.4063L17.1572 10.4063C17.2783 10.406 17.396 10.3668 17.493 10.2943C17.635 10.1881 17.7187 10.0211 17.7187 9.84376L17.7187 9.83732C17.7173 9.71814 17.6781 9.60247 17.6068 9.507L17.6063 9.50637C16.9302 8.60203 15.9202 8.09704 15.9202 8.09704C14.9099 7.59187 13.7803 7.59376 13.7803 7.59376L13.7812 7.59376C14.0919 7.59376 14.3437 7.8456 14.3437 8.15626C14.3437 8.46643 14.0926 8.71807 13.7825 8.71876L16.7055 10.1803Z" fill="#1C1C1C" fill-opacity="0.65" style="fill:#1C1C1C;fill:color(display-p3 0.1098 0.1098 0.1098);fill-opacity:0.65;"/>
<path d="M2.58288 9.10327C3.35479 8.71731 4.21781 8.71876 4.21781 8.71876L4.2186 8.71876H4.21875C4.22745 8.71876 4.23614 8.71855 4.24483 8.71815C4.38452 8.71167 4.51679 8.65338 4.61583 8.55467C4.7215 8.44936 4.781 8.30638 4.78125 8.1572L4.78125 8.15642V8.15626C4.78125 8.12224 4.77816 8.08829 4.77203 8.05483C4.72313 7.78809 4.49088 7.59421 4.21969 7.59376L4.21875 7.59376C3.08968 7.59208 2.07976 8.09704 2.07976 8.09704C1.06979 8.60203 0.393666 9.50637 0.393666 9.50637L0.393259 9.50691C0.320517 9.60424 0.28125 9.72237 0.28125 9.84376L0.281281 9.84965C0.281542 9.87461 0.283465 9.89953 0.287037 9.92424C0.308382 10.0719 0.387506 10.205 0.507003 10.2943C0.604234 10.367 0.722364 10.4063 0.84375 10.4063C0.85127 10.4063 0.85879 10.4061 0.866305 10.4058C1.03563 10.399 1.19287 10.3162 1.29431 10.1805C1.81097 9.48922 2.58288 9.10327 2.58288 9.10327Z" fill="#1C1C1C" fill-opacity="0.65" style="fill:#1C1C1C;fill:color(display-p3 0.1098 0.1098 0.1098);fill-opacity:0.65;"/>
<path d="M11.0897 13.8195C12.0482 14.4181 12.5442 15.4333 12.5442 15.4333L12.5446 15.434L12.5447 15.4343C12.6391 15.6275 12.8352 15.75 13.0502 15.75L13.0656 15.7498C13.1459 15.7476 13.2248 15.7282 13.297 15.693C13.4902 15.5987 13.6127 15.4025 13.6127 15.1875L13.6125 15.1721C13.6103 15.0918 13.5909 15.0129 13.5557 14.9407L13.5554 14.9403C12.9179 13.6349 11.6857 12.8653 11.6857 12.8653C10.4532 12.0956 9.0002 12.0956 9.0002 12.0956C7.54715 12.0956 6.31472 12.8653 6.31472 12.8653C5.08251 13.6349 4.44495 14.9403 4.44495 14.9403L4.44476 14.9407C4.4072 15.0176 4.3877 15.102 4.3877 15.1875L4.38774 15.1949C4.38852 15.2546 4.39882 15.3139 4.41826 15.3704C4.46676 15.5115 4.56933 15.6275 4.70338 15.693C4.78025 15.7305 4.86466 15.75 4.9502 15.75L4.96311 15.7499C5.17337 15.7451 5.36337 15.6233 5.45566 15.4343C5.95173 14.4184 6.91067 13.8195 6.91067 13.8195C7.8696 13.2206 9.0002 13.2206 9.0002 13.2206C10.1308 13.2206 11.0897 13.8195 11.0897 13.8195Z" fill="#1C1C1C" fill-opacity="0.65" style="fill:#1C1C1C;fill:color(display-p3 0.1098 0.1098 0.1098);fill-opacity:0.65;"/>
<path d="M5.44679 4.75085C5.78255 5.10823 5.8745 5.5899 5.8745 5.5899C5.90247 5.73644 5.98751 5.86586 6.11091 5.9497C6.20415 6.01306 6.31429 6.04693 6.42702 6.04693L6.43067 6.04692C6.46484 6.0467 6.49892 6.04336 6.53249 6.03695C6.79769 5.98633 6.98952 5.75442 6.98952 5.48443L6.98951 5.48126C6.98932 5.44693 6.98598 5.41269 6.97954 5.37896C6.8263 4.57618 6.2667 3.98054 6.2667 3.98054C5.7071 3.3849 4.91543 3.18192 4.91543 3.18192C4.12376 2.97895 3.34659 3.23186 3.34659 3.23186C2.56943 3.48476 2.04884 4.11478 2.04884 4.11478C1.52824 4.7448 1.42636 5.5557 1.42636 5.5557C1.32448 6.3666 1.67305 7.10582 1.67305 7.10582C2.02161 7.84504 2.71206 8.28234 2.71206 8.28234C3.40226 8.71948 4.21921 8.7188 4.21921 8.7188L4.21978 8.7188C4.36896 8.71865 4.51198 8.65924 4.61736 8.55365C4.7226 8.44819 4.78171 8.30529 4.78171 8.15631L4.78171 8.15573C4.78139 7.8453 4.52964 7.5938 4.21921 7.5938L4.21864 7.59381C3.72827 7.5943 3.314 7.33192 3.314 7.33192C2.89974 7.06955 2.6906 6.62602 2.6906 6.62602C2.48146 6.18248 2.54259 5.69594 2.54259 5.69594C2.60372 5.2094 2.91607 4.83139 2.91607 4.83139C3.22843 4.45338 3.69473 4.30164 3.69473 4.30164C4.16102 4.14989 4.63603 4.27168 4.63603 4.27168C5.11103 4.39346 5.44679 4.75085 5.44679 4.75085Z" fill="#1C1C1C" fill-opacity="0.65" style="fill:#1C1C1C;fill:color(display-p3 0.1098 0.1098 0.1098);fill-opacity:0.65;"/>
<path d="M14.6863 7.33192C14.272 7.5943 13.7816 7.59381 13.7816 7.59381L13.7811 7.5938C13.7722 7.5938 13.7634 7.59401 13.7546 7.59443L13.2192 8.18275C13.2258 8.32244 13.2841 8.45467 13.3829 8.55365C13.4883 8.65924 13.6313 8.71865 13.7805 8.7188L13.7811 8.7188C14.598 8.71948 15.2882 8.28234 15.2882 8.28234C15.9786 7.84504 16.3272 7.10582 16.3272 7.10582C16.6758 6.3666 16.5739 5.5557 16.5739 5.5557C16.472 4.7448 15.9514 4.11478 15.9514 4.11478C15.4308 3.48476 14.6537 3.23186 14.6537 3.23186C13.8765 2.97895 13.0848 3.18192 13.0848 3.18192C12.2932 3.3849 11.7336 3.98054 11.7336 3.98054C11.174 4.57618 11.0207 5.37896 11.0207 5.37896C11.0141 5.41373 11.0107 5.44904 11.0107 5.48443C11.0107 5.50133 11.0115 5.51823 11.013 5.53506C11.0356 5.78509 11.2212 5.98988 11.4678 6.03695C11.5025 6.04359 11.5379 6.04693 11.5732 6.04693C11.5901 6.04693 11.607 6.04617 11.6239 6.04465C11.8739 6.02205 12.0787 5.8365 12.1258 5.5899C12.2177 5.10823 12.5535 4.75085 12.5535 4.75085C12.8892 4.39346 13.3642 4.27168 13.3642 4.27168C13.8392 4.14989 14.3055 4.30164 14.3055 4.30164C14.7718 4.45338 15.0842 4.83139 15.0842 4.83139C15.3965 5.2094 15.4577 5.69594 15.4577 5.69594C15.5188 6.18248 15.3097 6.62602 15.3097 6.62602C15.1005 7.06955 14.6863 7.33192 14.6863 7.33192Z" fill="#1C1C1C" fill-opacity="0.65" style="fill:#1C1C1C;fill:color(display-p3 0.1098 0.1098 0.1098);fill-opacity:0.65;"/>
</svg>
