<svg width="18" height="18" viewBox="0 0 18 18" fill="none" xmlns="http://www.w3.org/2000/svg">
<path d="M8.4375 1.125H9.5625V2.8125H8.4375V1.125Z" fill="#474747" style="fill:#474747;fill:color(display-p3 0.2784 0.2784 0.2784);fill-opacity:1;"/>
<path d="M15.1875 8.4375H16.875V9.5625H15.1875V8.4375Z" fill="#474747" style="fill:#474747;fill:color(display-p3 0.2784 0.2784 0.2784);fill-opacity:1;"/>
<path d="M8.4375 15.1875H9.5625V16.875H8.4375V15.1875Z" fill="#474747" style="fill:#474747;fill:color(display-p3 0.2784 0.2784 0.2784);fill-opacity:1;"/>
<path d="M1.125 8.4375H2.8125V9.5625H1.125V8.4375Z" fill="#474747" style="fill:#474747;fill:color(display-p3 0.2784 0.2784 0.2784);fill-opacity:1;"/>
<path d="M3.06543 3.87207L3.86092 3.07658L5.05417 4.26982L4.25867 5.06531L3.06543 3.87207Z" fill="#474747" style="fill:#474747;fill:color(display-p3 0.2784 0.2784 0.2784);fill-opacity:1;"/>
<path d="M12.9375 4.26428L14.1307 3.07104L14.9262 3.86653L13.733 5.05978L12.9375 4.26428Z" fill="#474747" style="fill:#474747;fill:color(display-p3 0.2784 0.2784 0.2784);fill-opacity:1;"/>
<path d="M12.9385 13.7343L13.734 12.9388L14.9272 14.132L14.1317 14.9275L12.9385 13.7343Z" fill="#474747" style="fill:#474747;fill:color(display-p3 0.2784 0.2784 0.2784);fill-opacity:1;"/>
<path d="M3.07617 14.1356L4.26867 12.9375L5.0618 13.7363L3.8693 14.9288L3.07617 14.1356Z" fill="#474747" style="fill:#474747;fill:color(display-p3 0.2784 0.2784 0.2784);fill-opacity:1;"/>
<path d="M9 4.5C8.10999 4.5 7.23996 4.76392 6.49994 5.25839C5.75991 5.75285 5.18314 6.45566 4.84254 7.27792C4.50195 8.10019 4.41283 9.00499 4.58647 9.87791C4.7601 10.7508 5.18868 11.5526 5.81802 12.182C6.44736 12.8113 7.24918 13.2399 8.1221 13.4135C8.99501 13.5872 9.89981 13.4981 10.7221 13.1575C11.5443 12.8169 12.2471 12.2401 12.7416 11.5001C13.2361 10.76 13.5 9.89002 13.5 9C13.5 7.80653 13.0259 6.66193 12.182 5.81802C11.3381 4.97411 10.1935 4.5 9 4.5ZM9 12.375C8.1049 12.375 7.24645 12.0194 6.61352 11.3865C5.98058 10.7536 5.625 9.89511 5.625 9C5.625 8.10489 5.98058 7.24645 6.61352 6.61351C7.24645 5.98058 8.1049 5.625 9 5.625V12.375Z" fill="#474747" style="fill:#474747;fill:color(display-p3 0.2784 0.2784 0.2784);fill-opacity:1;"/>
</svg>
