<svg width="15" height="16" viewBox="0 0 15 16" fill="none" xmlns="http://www.w3.org/2000/svg">
<path d="M11.3538 7.15744C11.7519 10.8351 13.3149 11.9466 13.3149 11.9466H1C1 11.9466 3.05248 10.487 3.05248 5.37863C3.05248 4.21734 3.48497 3.10362 4.2548 2.28247C5.02463 1.46132 6.06874 1 7.15744 1C7.38821 1 7.61699 1.02073 7.8416 1.06123" stroke="#474747" style="stroke:#474747;stroke:color(display-p3 0.2784 0.2784 0.2784);stroke-opacity:1;" stroke-linecap="round" stroke-linejoin="round"/>
<path d="M11.947 5.10496C13.0806 5.10496 13.9995 4.18603 13.9995 3.05248C13.9995 1.91893 13.0806 1 11.947 1C10.8134 1 9.89453 1.91893 9.89453 3.05248C9.89453 4.18603 10.8134 5.10496 11.947 5.10496Z" stroke="#474747" style="stroke:#474747;stroke:color(display-p3 0.2784 0.2784 0.2784);stroke-opacity:1;" stroke-linecap="round" stroke-linejoin="round"/>
<path d="M8.33985 13.9991C8.21958 14.2065 8.04696 14.3786 7.83918 14.4982C7.63147 14.6179 7.39598 14.6809 7.15625 14.6809C6.91652 14.6809 6.68104 14.6179 6.47332 14.4982C6.26561 14.3786 6.09293 14.2065 5.97266 13.9991" stroke="#474747" style="stroke:#474747;stroke:color(display-p3 0.2784 0.2784 0.2784);stroke-opacity:1;" stroke-linecap="round" stroke-linejoin="round"/>
</svg>
