<svg width="18" height="18" viewBox="0 0 18 18" fill="none" xmlns="http://www.w3.org/2000/svg">
<path d="M7.875 8.4375H12.375C12.6857 8.4375 12.9375 8.18566 12.9375 7.875C12.9375 7.56434 12.6857 7.3125 12.375 7.3125H7.875C7.56434 7.3125 7.3125 7.56434 7.3125 7.875C7.3125 8.18566 7.56434 8.4375 7.875 8.4375Z" fill="#1C1C1C" fill-opacity="0.65" style="fill:#1C1C1C;fill:color(display-p3 0.1098 0.1098 0.1098);fill-opacity:0.65;"/>
<path d="M7.875 10.6875H12.375C12.6857 10.6875 12.9375 10.4357 12.9375 10.125C12.9375 9.81434 12.6857 9.5625 12.375 9.5625H7.875C7.56434 9.5625 7.3125 9.81434 7.3125 10.125C7.3125 10.4357 7.56434 10.6875 7.875 10.6875Z" fill="#1C1C1C" fill-opacity="0.65" style="fill:#1C1C1C;fill:color(display-p3 0.1098 0.1098 0.1098);fill-opacity:0.65;"/>
<path fill-rule="evenodd" clip-rule="evenodd" d="M2.25 3.375C2.25 3.375 2.25 2.90901 2.5795 2.5795C2.5795 2.5795 2.90901 2.25 3.375 2.25H14.625C14.625 2.25 15.091 2.25 15.4205 2.5795C15.4205 2.5795 15.75 2.90901 15.75 3.375V14.625C15.75 14.625 15.75 15.091 15.4205 15.4205C15.4205 15.4205 15.091 15.75 14.625 15.75H3.375C3.375 15.75 2.90901 15.75 2.5795 15.4205C2.5795 15.4205 2.25 15.091 2.25 14.625V3.375ZM3.375 3.375V14.625H14.625V3.375H3.375Z" fill="#1C1C1C" fill-opacity="0.65" style="fill:#1C1C1C;fill:color(display-p3 0.1098 0.1098 0.1098);fill-opacity:0.65;"/>
<path d="M5.0625 2.8125V15.1875C5.0625 15.4982 5.31434 15.75 5.625 15.75C5.93566 15.75 6.1875 15.4982 6.1875 15.1875V2.8125C6.1875 2.50184 5.93566 2.25 5.625 2.25C5.31434 2.25 5.0625 2.50184 5.0625 2.8125Z" fill="#1C1C1C" fill-opacity="0.65" style="fill:#1C1C1C;fill:color(display-p3 0.1098 0.1098 0.1098);fill-opacity:0.65;"/>
</svg>
