<svg width="18" height="18" viewBox="0 0 18 18" fill="none" xmlns="http://www.w3.org/2000/svg">
<path fill-rule="evenodd" clip-rule="evenodd" d="M8.90259 2.11568C8.90259 2.11568 7.86888 1.6875 6.75 1.6875H6.74959C6.74959 1.6875 5.63093 1.68758 4.59741 2.11568C4.59741 2.11568 3.56369 2.54386 2.77252 3.33502C2.77252 3.33502 1.98136 4.12619 1.55318 5.15991C1.55318 5.15991 1.125 6.19362 1.125 7.3125V11.9531C1.125 11.9531 1.125 12.3609 1.41332 12.6492C1.41332 12.6492 1.70163 12.9375 2.10938 12.9375H6.75C6.75 12.9375 7.86888 12.9375 8.90259 12.5093C8.90259 12.5093 9.9363 12.0811 10.7275 11.29C10.7275 11.29 11.5186 10.4988 11.9468 9.46509C11.9468 9.46509 12.375 8.43138 12.375 7.3125C12.375 7.3125 12.375 6.19362 11.9468 5.15991C11.9468 5.15991 11.5186 4.12619 10.7275 3.33502C10.7275 3.33502 9.93631 2.54386 8.90259 2.11568ZM11.25 7.3125C11.25 7.3125 11.25 6.4174 10.9075 5.59042C10.9075 5.59042 10.5649 4.76346 9.93198 4.13052C9.93198 4.13052 9.29905 3.49758 8.47208 3.15504C8.47208 3.15504 7.64527 2.81257 6.75037 2.8125L6.75 2.8125C6.75 2.8125 5.85489 2.8125 5.02792 3.15504C5.02792 3.15504 4.20096 3.49758 3.56802 4.13052C3.56802 4.13052 2.93508 4.76345 2.59254 5.59042C2.59254 5.59042 2.25 6.41739 2.25 7.3125L2.25 11.8125H6.75C6.75 11.8125 7.6451 11.8125 8.47208 11.47C8.47208 11.47 9.29904 11.1274 9.93198 10.4945C9.93198 10.4945 10.5649 9.86154 10.9075 9.03458C10.9075 9.03458 11.25 8.2076 11.25 7.3125Z" fill="#1C1C1C" fill-opacity="0.65" style="fill:#1C1C1C;fill:color(display-p3 0.1098 0.1098 0.1098);fill-opacity:0.65;"/>
<path d="M11.5538 5.07037C11.5439 5.06984 11.5339 5.06958 11.524 5.06958C11.4996 5.06958 11.4752 5.07117 11.451 5.07433C11.1822 5.10952 10.9766 5.33155 10.9623 5.60235C10.9618 5.61225 10.9615 5.62217 10.9615 5.63208C10.9615 5.64026 10.9617 5.64844 10.9621 5.65662C10.9678 5.78695 11.0186 5.91126 11.1058 6.00825C11.2056 6.11917 11.3453 6.18591 11.4943 6.19379C13.2855 6.28859 14.5189 7.59085 14.5189 7.59085C15.7523 8.8931 15.7498 10.6868 15.7498 10.6868V15.1875H11.2498C9.81909 15.1879 8.65094 14.3621 8.65094 14.3621C7.48295 13.5364 7.00606 12.188 7.00606 12.188L7.00592 12.1875C6.92646 11.9628 6.71396 11.8125 6.47559 11.8125L6.46869 11.8126C6.40714 11.8133 6.34612 11.8242 6.28809 11.8447C6.14743 11.8944 6.0323 11.998 5.968 12.1326C5.93185 12.2083 5.91309 12.2912 5.91309 12.375L5.91322 12.3873C5.91451 12.447 5.92533 12.5062 5.94526 12.5625C6.54133 14.2485 8.00153 15.2807 8.00153 15.2807C9.46173 16.313 11.2498 16.3125 11.2498 16.3125H15.8904C16.2982 16.3125 16.5865 16.0242 16.5865 16.0242C16.8748 15.7359 16.8748 15.3282 16.8748 15.3282V10.6883C16.8763 9.60839 16.4773 8.60485 16.4773 8.60485C16.0783 7.60131 15.3357 6.81723 15.3357 6.81723C14.593 6.03315 13.6126 5.5803 13.6126 5.5803C12.6324 5.12752 11.5541 5.07039 11.5541 5.07039L11.5538 5.07037Z" fill="#1C1C1C" fill-opacity="0.65" style="fill:#1C1C1C;fill:color(display-p3 0.1098 0.1098 0.1098);fill-opacity:0.65;"/>
</svg>
