<svg width="18" height="18" viewBox="0 0 18 18" fill="none" xmlns="http://www.w3.org/2000/svg">
<path d="M10.6875 8.4375H13.5C13.8107 8.4375 14.0625 8.18566 14.0625 7.875C14.0625 7.56434 13.8107 7.3125 13.5 7.3125H10.6875C10.3768 7.3125 10.125 7.56434 10.125 7.875C10.125 8.18566 10.3768 8.4375 10.6875 8.4375Z" fill="#1C1C1C" fill-opacity="0.65" style="fill:#1C1C1C;fill:color(display-p3 0.1098 0.1098 0.1098);fill-opacity:0.65;"/>
<path d="M10.6875 10.6875H13.5C13.8107 10.6875 14.0625 10.4357 14.0625 10.125C14.0625 9.81434 13.8107 9.5625 13.5 9.5625H10.6875C10.3768 9.5625 10.125 9.81434 10.125 10.125C10.125 10.4357 10.3768 10.6875 10.6875 10.6875Z" fill="#1C1C1C" fill-opacity="0.65" style="fill:#1C1C1C;fill:color(display-p3 0.1098 0.1098 0.1098);fill-opacity:0.65;"/>
<path fill-rule="evenodd" clip-rule="evenodd" d="M6.47559 5.1875C6.47559 5.1875 7.40757 5.1875 8.06658 5.84651C8.06658 5.84651 8.72559 6.50552 8.72559 7.4375C8.72559 7.4375 8.72559 8.36948 8.06658 9.02849C8.06658 9.02849 7.40757 9.6875 6.47559 9.6875C6.47559 9.6875 5.54361 9.6875 4.8846 9.02849C4.8846 9.02849 4.22559 8.36948 4.22559 7.4375C4.22559 7.4375 4.22559 6.50552 4.8846 5.84651C4.8846 5.84651 5.54361 5.1875 6.47559 5.1875ZM6.47559 6.3125C6.47559 6.3125 6.0096 6.3125 5.68009 6.642C5.68009 6.642 5.35059 6.97151 5.35059 7.4375C5.35059 7.4375 5.35059 7.90349 5.68009 8.233C5.68009 8.233 6.0096 8.5625 6.47559 8.5625C6.47559 8.5625 6.94158 8.5625 7.27108 8.233C7.27108 8.233 7.60059 7.90349 7.60059 7.4375C7.60059 7.4375 7.60059 6.97151 7.27108 6.642C7.27108 6.642 6.94158 6.3125 6.47559 6.3125Z" fill="#1C1C1C" fill-opacity="0.65" style="fill:#1C1C1C;fill:color(display-p3 0.1098 0.1098 0.1098);fill-opacity:0.65;"/>
<path d="M7.51031 11.0376C7.96652 11.3917 8.11007 11.9509 8.11007 11.9509L8.11021 11.9515L8.11035 11.952C8.17408 12.2009 8.39835 12.375 8.65527 12.375L8.66659 12.3749C8.70985 12.374 8.75287 12.3682 8.7948 12.3574C9.04369 12.2937 9.21777 12.0694 9.21777 11.8125L9.21766 11.8012C9.21679 11.7579 9.21093 11.7149 9.2002 11.673C8.96122 10.7396 8.20013 10.1489 8.20013 10.1489C7.43905 9.55811 6.47559 9.55811 6.47559 9.55811C5.51213 9.55811 4.75104 10.1489 4.75104 10.1489C3.98995 10.7396 3.75098 11.673 3.75098 11.673C3.7393 11.7186 3.7334 11.7655 3.7334 11.8125C3.7334 11.8205 3.73357 11.8285 3.73391 11.8365C3.73787 11.9292 3.76467 12.0194 3.81192 12.0992C3.88795 12.2275 4.01185 12.3204 4.15638 12.3574C4.20197 12.3691 4.24884 12.375 4.2959 12.375C4.3039 12.375 4.3119 12.3748 4.31989 12.3745C4.41254 12.3705 4.50277 12.3438 4.58256 12.2965C4.71092 12.2205 4.80382 12.0966 4.84082 11.952C4.98421 11.392 5.44086 11.0376 5.44086 11.0376C5.89751 10.6831 6.47559 10.6831 6.47559 10.6831C7.05366 10.6831 7.51031 11.0376 7.51031 11.0376Z" fill="#1C1C1C" fill-opacity="0.65" style="fill:#1C1C1C;fill:color(display-p3 0.1098 0.1098 0.1098);fill-opacity:0.65;"/>
<path fill-rule="evenodd" clip-rule="evenodd" d="M1.6875 3.9375C1.6875 3.9375 1.6875 3.47151 2.017 3.142C2.017 3.142 2.34651 2.8125 2.8125 2.8125H15.1875C15.1875 2.8125 15.6535 2.8125 15.983 3.142C15.983 3.142 16.3125 3.47151 16.3125 3.9375V14.0625C16.3125 14.0625 16.3125 14.5285 15.983 14.858C15.983 14.858 15.6535 15.1875 15.1875 15.1875H2.8125C2.8125 15.1875 2.34651 15.1875 2.017 14.858C2.017 14.858 1.6875 14.5285 1.6875 14.0625V3.9375ZM2.8125 3.9375V14.0625H15.1875V3.9375H2.8125Z" fill="#1C1C1C" fill-opacity="0.65" style="fill:#1C1C1C;fill:color(display-p3 0.1098 0.1098 0.1098);fill-opacity:0.65;"/>
</svg>
