<svg width="16" height="16" viewBox="0 0 16 16" fill="none" xmlns="http://www.w3.org/2000/svg">
<path d="M14.3496 14.3562C14.2563 14.4481 14.1306 14.4998 13.9996 14.5C13.8668 14.4994 13.7393 14.448 13.6434 14.3562L10.9434 11.65C9.80622 12.6051 8.34425 13.0844 6.86236 12.9878C5.38046 12.8912 3.99306 12.2263 2.98951 11.1316C1.98596 10.037 1.44375 8.59717 1.47597 7.11248C1.50818 5.62779 2.11233 4.21286 3.16241 3.16277C4.21249 2.11269 5.62743 1.50855 7.11212 1.47633C8.59681 1.44412 10.0366 1.98633 11.1313 2.98988C12.2259 3.99343 12.8908 5.38083 12.9874 6.86273C13.084 8.34462 12.6047 9.80659 11.6496 10.9437L14.3496 13.6437C14.3969 13.6903 14.4344 13.7457 14.46 13.8069C14.4856 13.868 14.4988 13.9337 14.4988 14C14.4988 14.0663 14.4856 14.1319 14.46 14.1931C14.4344 14.2542 14.3969 14.3097 14.3496 14.3562ZM7.24961 12C8.18907 12 9.10743 11.7214 9.88857 11.1995C10.6697 10.6775 11.2785 9.93567 11.638 9.06772C11.9976 8.19977 12.0916 7.24471 11.9083 6.3233C11.7251 5.40189 11.2727 4.55552 10.6084 3.89122C9.94407 3.22692 9.0977 2.77452 8.17629 2.59124C7.25488 2.40797 6.29981 2.50203 5.43186 2.86155C4.56391 3.22106 3.82206 3.82988 3.30013 4.61102C2.77819 5.39215 2.49961 6.31051 2.49961 7.24998C2.50126 8.50925 3.00224 9.71647 3.89268 10.6069C4.78312 11.4973 5.99034 11.9983 7.24961 12Z" fill="#1C1C1C" fill-opacity="0.2" style="fill:#1C1C1C;fill:color(display-p3 0.1098 0.1098 0.1098);fill-opacity:0.2;"/>
</svg>
