<svg width="16" height="16" viewBox="0 0 16 16" fill="none" xmlns="http://www.w3.org/2000/svg">
<path d="M7.99318 10.363C6.45415 10.363 5.20508 9.11388 5.20508 7.57485C5.20508 6.03581 6.45415 4.78674 7.99318 4.78674C9.53222 4.78674 10.7813 6.03581 10.7813 7.57485C10.7813 9.11388 9.53222 10.363 7.99318 10.363ZM7.99318 5.90198C7.07125 5.90198 6.32032 6.65291 6.32032 7.57485C6.32032 8.49678 7.07125 9.24771 7.99318 9.24771C8.91512 9.24771 9.66604 8.49678 9.66604 7.57485C9.66604 6.65291 8.91512 5.90198 7.99318 5.90198Z" fill="#474747" style="fill:#474747;fill:color(display-p3 0.2784 0.2784 0.2784);fill-opacity:1;"/>
<path d="M10.3792 15.1508C10.223 15.1508 10.0669 15.1285 9.91078 15.0913C9.44981 14.9649 9.0632 14.6749 8.81784 14.266L8.72862 14.1173C8.28996 13.3589 7.68773 13.3589 7.24907 14.1173L7.16729 14.2586C6.92193 14.6749 6.53532 14.9723 6.07435 15.0913C5.60595 15.2177 5.12268 15.1508 4.71375 14.9054L3.43494 14.1694C2.98141 13.9091 2.65428 13.4853 2.51301 12.9723C2.37918 12.4593 2.4461 11.9314 2.70632 11.4779C2.92193 11.0987 2.98141 10.7567 2.85502 10.5411C2.72862 10.3255 2.40892 10.1991 1.97026 10.1991C0.884758 10.1991 0 9.31434 0 8.22884V6.92029C0 5.83478 0.884758 4.95003 1.97026 4.95003C2.40892 4.95003 2.72862 4.82363 2.85502 4.60802C2.98141 4.39241 2.92937 4.0504 2.70632 3.67122C2.4461 3.21768 2.37918 2.68237 2.51301 2.17679C2.64684 1.66378 2.97398 1.23999 3.43494 0.979767L4.72119 0.243707C5.56134 -0.254434 6.66914 0.0355289 7.17472 0.890547L7.26394 1.03925C7.7026 1.79761 8.30483 1.79761 8.74349 1.03925L8.82528 0.897982C9.33085 0.0355289 10.4387 -0.254434 11.2862 0.251142L12.5651 0.987202C13.0186 1.24742 13.3457 1.67122 13.487 2.18423C13.6208 2.69724 13.5539 3.22512 13.2937 3.67865C13.0781 4.05783 13.0186 4.39984 13.145 4.61545C13.2714 4.83107 13.5911 4.95746 14.0297 4.95746C15.1152 4.95746 16 5.84222 16 6.92772V8.23627C16 9.32177 15.1152 10.2065 14.0297 10.2065C13.5911 10.2065 13.2714 10.3329 13.145 10.5485C13.0186 10.7642 13.0706 11.1062 13.2937 11.4853C13.5539 11.9389 13.6283 12.4742 13.487 12.9798C13.3532 13.4928 13.026 13.9166 12.5651 14.1768L11.2788 14.9129C10.9963 15.069 10.6914 15.1508 10.3792 15.1508ZM7.99256 12.3998C8.65427 12.3998 9.27137 12.8162 9.69517 13.5523L9.77695 13.6935C9.86617 13.8497 10.0149 13.9612 10.1933 14.0058C10.3717 14.0504 10.5502 14.0281 10.6989 13.9389L11.9851 13.1954C12.1784 13.0839 12.3271 12.898 12.3866 12.6749C12.4461 12.4519 12.4164 12.2214 12.3048 12.0281C11.881 11.2995 11.829 10.5485 12.1561 9.97605C12.4833 9.40356 13.1599 9.07642 14.0074 9.07642C14.4833 9.07642 14.8625 8.69724 14.8625 8.2214V6.91285C14.8625 6.44445 14.4833 6.05783 14.0074 6.05783C13.1599 6.05783 12.4833 5.7307 12.1561 5.15821C11.829 4.58571 11.881 3.83479 12.3048 3.10616C12.4164 2.91285 12.4461 2.68237 12.3866 2.45932C12.3271 2.23627 12.1859 2.05783 11.9926 1.93887L10.7063 1.20282C10.3866 1.00951 9.96282 1.12103 9.76952 1.44817L9.68773 1.58943C9.26394 2.32549 8.64684 2.74185 7.98513 2.74185C7.32342 2.74185 6.70632 2.32549 6.28253 1.58943L6.20074 1.44073C6.01487 1.12847 5.59851 1.01694 5.27881 1.20282L3.99256 1.94631C3.79926 2.05783 3.65056 2.24371 3.59108 2.46676C3.5316 2.6898 3.56134 2.92029 3.67286 3.1136C4.09665 3.84222 4.1487 4.59315 3.82156 5.16564C3.49442 5.73813 2.81784 6.06527 1.97026 6.06527C1.49442 6.06527 1.11524 6.44445 1.11524 6.92029V8.22884C1.11524 8.69724 1.49442 9.08386 1.97026 9.08386C2.81784 9.08386 3.49442 9.41099 3.82156 9.98348C4.1487 10.556 4.09665 11.3069 3.67286 12.0355C3.56134 12.2288 3.5316 12.4593 3.59108 12.6824C3.65056 12.9054 3.79182 13.0839 3.98513 13.2028L5.27138 13.9389C5.42751 14.0355 5.61338 14.0578 5.78439 14.0132C5.96282 13.9686 6.11152 13.8497 6.20818 13.6935L6.28996 13.5523C6.71375 12.8236 7.33085 12.3998 7.99256 12.3998Z" fill="#474747" style="fill:#474747;fill:color(display-p3 0.2784 0.2784 0.2784);fill-opacity:1;"/>
</svg>
